# xmcd
#
# Track frame offsets:
# 150
# 15630
# 34250
# 50050
# 67820
# 80582
# 94500
# 111312
# 133867
# 148765
#
# Disc length: 2146 seconds
#
#
# Revision: 0
# Processed by: cddbd v1.4PL0 Copyright (c) Steve Scherf et al.
# Submitted via: FreeRIP 2.40 
#
DISCID=8a08600a
DTITLE=Georg Hug - With Friends
DYEAR=1900
DGENRE=Country
TTITLE0=I'm Riding
TTITLE1=Feeling
TTITLE2=Moody
TTITLE3=Sam's Mother
TTITLE4=Me And The Juke-Box
TTITLE5=A Tear For Texas And A Tear For Tenessee
TTITLE6=Married
TTITLE7=Old Roy
TTITLE8=Honey, You Don't Know My Mind
TTITLE9=Out In The Country
EXTD=
EXTT0=
EXTT1=
EXTT2=
EXTT3=
EXTT4=
EXTT5=
EXTT6=
EXTT7=
EXTT8=
EXTT9=
PLAYORDER=
